<mxfile host="app.diagrams.net" agent="Mozilla/5.0 (Macintosh; Intel Mac OS X 10.15; rv:129.0) Gecko/20100101 Firefox/129.0" version="24.7.7">
  <diagram name="Page-1" id="f1b7ffb7-ca1e-a977-7cf5-a751b3c06c05">
    <mxGraphModel dx="1026" dy="571" grid="0" gridSize="10" guides="1" tooltips="1" connect="1" arrows="1" fold="1" page="1" pageScale="1" pageWidth="826" pageHeight="1169" background="none" math="0" shadow="0">
      <root>
        <mxCell id="0" />
        <mxCell id="1" parent="0" />
        <mxCell id="13" value="" style="verticalLabelPosition=bottom;verticalAlign=top;strokeWidth=1;shape=mxgraph.mockup.graphics.iconGrid;strokeColor=#CCCCCC;gridSize=1,1;" parent="1" vertex="1">
          <mxGeometry x="20" y="120" width="780" height="1490" as="geometry" />
        </mxCell>
        <mxCell id="2" value="Every Attendee" style="text;spacingTop=-5;fontSize=18;fontStyle=0" parent="1" vertex="1">
          <mxGeometry x="70" y="30" width="230" height="20" as="geometry" />
        </mxCell>
        <mxCell id="3" value="" style="line;strokeWidth=1" parent="1" vertex="1">
          <mxGeometry x="20" y="60" width="780" height="10" as="geometry" />
        </mxCell>
        <mxCell id="4" value="" style="line;strokeWidth=1" parent="1" vertex="1">
          <mxGeometry x="20" y="90" width="780" height="10" as="geometry" />
        </mxCell>
        <mxCell id="8" value="RSVP for Evan&#39;s 40th Birthday Party!" style="text;spacingTop=-5;fontSize=24;" parent="1" vertex="1">
          <mxGeometry x="208" y="130" width="410" height="20" as="geometry" />
        </mxCell>
        <mxCell id="11" value="Logout" style="text;spacingTop=-5;" parent="1" vertex="1">
          <mxGeometry x="740" y="70.00000000000013" width="30" height="20" as="geometry" />
        </mxCell>
        <mxCell id="20" value="" style="verticalLabelPosition=bottom;verticalAlign=top;strokeWidth=1;shape=mxgraph.mockup.graphics.iconGrid;strokeColor=#CCCCCC;gridSize=1,1;" parent="1" vertex="1">
          <mxGeometry x="20" y="15" width="40" height="40" as="geometry" />
        </mxCell>
        <mxCell id="21" value="EvA" style="text;spacingTop=-5;align=center;verticalAlign=middle;" parent="1" vertex="1">
          <mxGeometry x="20" y="20" width="40" height="40" as="geometry" />
        </mxCell>
        <mxCell id="25" value="" style="verticalLabelPosition=bottom;verticalAlign=top;strokeWidth=1;shape=mxgraph.mockup.graphics.iconGrid;strokeColor=#CCCCCC;gridSize=1,1;" parent="1" vertex="1">
          <mxGeometry x="40" y="170" width="360" height="200" as="geometry" />
        </mxCell>
        <mxCell id="26" value="Event&#xa;Image" style="text;spacingTop=-5;align=center;verticalAlign=middle;fontSize=36;fontColor=#CCCCCC" parent="1" vertex="1">
          <mxGeometry x="40" y="170" width="360" height="200" as="geometry" />
        </mxCell>
        <mxCell id="PVGxl8hIO0mi03m5juIE-61" value="My Events" style="text;spacingTop=-5;" vertex="1" parent="1">
          <mxGeometry x="22" y="70.00000000000013" width="30" height="20" as="geometry" />
        </mxCell>
        <mxCell id="PVGxl8hIO0mi03m5juIE-62" value="RSVP" style="text;spacingTop=-5;" vertex="1" parent="1">
          <mxGeometry x="90" y="70.00000000000013" width="30" height="20" as="geometry" />
        </mxCell>
        <mxCell id="PVGxl8hIO0mi03m5juIE-64" value="" style="line;strokeWidth=1" vertex="1" parent="1">
          <mxGeometry x="19" y="380" width="780" height="10" as="geometry" />
        </mxCell>
        <mxCell id="PVGxl8hIO0mi03m5juIE-67" value="" style="group;fontStyle=2" vertex="1" connectable="0" parent="1">
          <mxGeometry x="40" y="405" width="350" height="30" as="geometry" />
        </mxCell>
        <mxCell id="PVGxl8hIO0mi03m5juIE-65" value="Your Name:" style="text;spacingTop=-5;fontSize=18;fontStyle=0" vertex="1" parent="PVGxl8hIO0mi03m5juIE-67">
          <mxGeometry y="5" width="140" height="20" as="geometry" />
        </mxCell>
        <mxCell id="PVGxl8hIO0mi03m5juIE-66" value="&lt;div style=&quot;font-size: 11px;&quot;&gt;&lt;font style=&quot;font-size: 11px;&quot;&gt;&lt;span&gt;How would you like to be addressed?&lt;/span&gt;&lt;/font&gt;&lt;/div&gt;" style="rounded=1;whiteSpace=wrap;html=1;fontStyle=2" vertex="1" parent="PVGxl8hIO0mi03m5juIE-67">
          <mxGeometry x="110" width="240" height="30" as="geometry" />
        </mxCell>
        <mxCell id="PVGxl8hIO0mi03m5juIE-71" value="required" style="text;spacingTop=-5;fontStyle=2" vertex="1" parent="1">
          <mxGeometry x="410" y="410.0000000000001" width="30" height="20" as="geometry" />
        </mxCell>
        <mxCell id="PVGxl8hIO0mi03m5juIE-74" value="" style="group;fontStyle=2" vertex="1" connectable="0" parent="1">
          <mxGeometry x="40" y="450" width="403" height="30" as="geometry" />
        </mxCell>
        <mxCell id="PVGxl8hIO0mi03m5juIE-68" value="" style="group" vertex="1" connectable="0" parent="PVGxl8hIO0mi03m5juIE-74">
          <mxGeometry width="350" height="30" as="geometry" />
        </mxCell>
        <mxCell id="PVGxl8hIO0mi03m5juIE-69" value="Full Name:" style="text;spacingTop=-5;fontSize=18;fontStyle=0" vertex="1" parent="PVGxl8hIO0mi03m5juIE-68">
          <mxGeometry y="5" width="140" height="20" as="geometry" />
        </mxCell>
        <mxCell id="PVGxl8hIO0mi03m5juIE-70" value="" style="rounded=1;whiteSpace=wrap;html=1;" vertex="1" parent="PVGxl8hIO0mi03m5juIE-68">
          <mxGeometry x="110" width="240" height="30" as="geometry" />
        </mxCell>
        <mxCell id="PVGxl8hIO0mi03m5juIE-72" value="optional" style="text;spacingTop=-5;fontStyle=2" vertex="1" parent="PVGxl8hIO0mi03m5juIE-74">
          <mxGeometry x="373" y="5.000000000000114" width="30" height="20" as="geometry" />
        </mxCell>
        <mxCell id="PVGxl8hIO0mi03m5juIE-75" value="" style="group" vertex="1" connectable="0" parent="1">
          <mxGeometry x="40" y="500" width="403" height="30" as="geometry" />
        </mxCell>
        <mxCell id="PVGxl8hIO0mi03m5juIE-76" value="" style="group" vertex="1" connectable="0" parent="PVGxl8hIO0mi03m5juIE-75">
          <mxGeometry width="350" height="30" as="geometry" />
        </mxCell>
        <mxCell id="PVGxl8hIO0mi03m5juIE-77" value="Email:" style="text;spacingTop=-5;fontSize=18;fontStyle=0" vertex="1" parent="PVGxl8hIO0mi03m5juIE-76">
          <mxGeometry y="5" width="140" height="20" as="geometry" />
        </mxCell>
        <mxCell id="PVGxl8hIO0mi03m5juIE-78" value="" style="rounded=1;whiteSpace=wrap;html=1;" vertex="1" parent="PVGxl8hIO0mi03m5juIE-76">
          <mxGeometry x="110" width="240" height="30" as="geometry" />
        </mxCell>
        <mxCell id="PVGxl8hIO0mi03m5juIE-80" value="" style="group" vertex="1" connectable="0" parent="1">
          <mxGeometry x="40" y="550" width="403" height="30" as="geometry" />
        </mxCell>
        <mxCell id="PVGxl8hIO0mi03m5juIE-81" value="" style="group" vertex="1" connectable="0" parent="PVGxl8hIO0mi03m5juIE-80">
          <mxGeometry width="350" height="30" as="geometry" />
        </mxCell>
        <mxCell id="PVGxl8hIO0mi03m5juIE-82" value="Phone:" style="text;spacingTop=-5;fontSize=18;fontStyle=0" vertex="1" parent="PVGxl8hIO0mi03m5juIE-81">
          <mxGeometry y="5" width="140" height="20" as="geometry" />
        </mxCell>
        <mxCell id="PVGxl8hIO0mi03m5juIE-83" value="" style="rounded=1;whiteSpace=wrap;html=1;" vertex="1" parent="PVGxl8hIO0mi03m5juIE-81">
          <mxGeometry x="110" width="240" height="30" as="geometry" />
        </mxCell>
        <mxCell id="PVGxl8hIO0mi03m5juIE-85" value="you must provide at least one contact method" style="text;spacingTop=-5;fontStyle=2;align=center;verticalAlign=middle;whiteSpace=wrap;" vertex="1" parent="1">
          <mxGeometry x="400" y="500" width="100" height="80" as="geometry" />
        </mxCell>
        <mxCell id="PVGxl8hIO0mi03m5juIE-86" value="" style="verticalLabelPosition=bottom;verticalAlign=top;strokeWidth=1;shape=mxgraph.mockup.graphics.iconGrid;strokeColor=#CCCCCC;gridSize=1,1;" vertex="1" parent="1">
          <mxGeometry x="420" y="170" width="360" height="200" as="geometry" />
        </mxCell>
        <mxCell id="PVGxl8hIO0mi03m5juIE-89" value="September 30th, 2025&#xa;6:30 PM - 11:30 PM&#xa;" style="text;spacingTop=-5;fontSize=18;fontStyle=0" vertex="1" parent="1">
          <mxGeometry x="430" y="180" width="230" height="50" as="geometry" />
        </mxCell>
        <mxCell id="PVGxl8hIO0mi03m5juIE-90" value="Board Game Island&#xa;213 23rd St&#xa;Galveston, TX 77550&#xa;" style="text;spacingTop=-5;fontSize=16;fontStyle=0;align=right;" vertex="1" parent="1">
          <mxGeometry x="540" y="227" width="230" height="70" as="geometry" />
        </mxCell>
        <mxCell id="PVGxl8hIO0mi03m5juIE-92" value="Join us for tasty food, good friends, and a wide variety of board games. BYOB. No children or pets please. Friends and partners welcome." style="text;spacingTop=-5;fontSize=14;fontStyle=0;whiteSpace=wrap;" vertex="1" parent="1">
          <mxGeometry x="430" y="305" width="300" height="50" as="geometry" />
        </mxCell>
        <mxCell id="PVGxl8hIO0mi03m5juIE-93" value="" style="line;strokeWidth=1" vertex="1" parent="1">
          <mxGeometry x="20" y="600" width="780" height="10" as="geometry" />
        </mxCell>
        <mxCell id="PVGxl8hIO0mi03m5juIE-95" value="Pronouns:" style="text;spacingTop=-5;fontSize=18;fontStyle=0" vertex="1" parent="1">
          <mxGeometry x="35" y="623" width="140" height="20" as="geometry" />
        </mxCell>
        <mxCell id="PVGxl8hIO0mi03m5juIE-99" value="" style="swimlane;strokeColor=#999999;swimlaneFillColor=#FFFFFF;fillColor=#ffffff;fontColor=#666666;fontStyle=0;childLayout=stackLayout;horizontal=1;startSize=0;horizontalStack=0;resizeParent=1;resizeParentMax=0;resizeLast=0;collapsible=0;marginBottom=0;whiteSpace=wrap;html=1;" vertex="1" parent="1">
          <mxGeometry x="151" y="626" width="626" height="60" as="geometry" />
        </mxCell>
        <mxCell id="PVGxl8hIO0mi03m5juIE-100" value="they/them" style="text;strokeColor=none;align=left;verticalAlign=middle;spacingLeft=27;spacingRight=10;overflow=hidden;points=[[0,0.5],[1,0.5]];portConstraint=eastwest;rotatable=0;whiteSpace=wrap;html=1;fillColor=none;fontColor=inherit;fontSize=17;" vertex="1" parent="PVGxl8hIO0mi03m5juIE-99">
          <mxGeometry width="626" height="30" as="geometry" />
        </mxCell>
        <mxCell id="PVGxl8hIO0mi03m5juIE-101" value="" style="resizable=0;fillColor=#EEEEEE;strokeColor=#999999;gradientColor=#cccccc;html=1;" vertex="1" parent="PVGxl8hIO0mi03m5juIE-100">
          <mxGeometry y="0.5" width="15" height="15" relative="1" as="geometry">
            <mxPoint x="8" y="-7.5" as="offset" />
          </mxGeometry>
        </mxCell>
        <mxCell id="PVGxl8hIO0mi03m5juIE-102" value="she/her" style="text;strokeColor=none;align=left;verticalAlign=middle;spacingLeft=27;spacingRight=10;overflow=hidden;points=[[0,0.5],[1,0.5]];portConstraint=eastwest;rotatable=0;whiteSpace=wrap;html=1;rSize=5;fillColor=none;fontColor=inherit;fontSize=17;" vertex="1" parent="PVGxl8hIO0mi03m5juIE-100">
          <mxGeometry x="301" width="157.18" height="30" as="geometry" />
        </mxCell>
        <mxCell id="PVGxl8hIO0mi03m5juIE-103" value="" style="resizable=0;fillColor=#EEEEEE;strokeColor=#999999;gradientColor=#cccccc;html=1;" vertex="1" parent="PVGxl8hIO0mi03m5juIE-102">
          <mxGeometry y="0.5" width="15" height="15" relative="1" as="geometry">
            <mxPoint x="8" y="-7.5" as="offset" />
          </mxGeometry>
        </mxCell>
        <mxCell id="PVGxl8hIO0mi03m5juIE-104" value="he/his" style="text;strokeColor=none;align=left;verticalAlign=middle;spacingLeft=27;spacingRight=10;overflow=hidden;points=[[0,0.5],[1,0.5]];portConstraint=eastwest;rotatable=0;whiteSpace=wrap;html=1;rSize=5;fillColor=none;fontColor=#008CFF;fontSize=17;" vertex="1" parent="PVGxl8hIO0mi03m5juIE-99">
          <mxGeometry y="30" width="626" height="30" as="geometry" />
        </mxCell>
        <mxCell id="PVGxl8hIO0mi03m5juIE-105" value="" style="shape=mxgraph.mockup.forms.checkbox;resizable=0;fillColor=#AAAAAA;gradientColor=#666666;strokeColor=#444444;html=1;" vertex="1" parent="PVGxl8hIO0mi03m5juIE-104">
          <mxGeometry y="0.5" width="15" height="15" relative="1" as="geometry">
            <mxPoint x="8" y="-7.5" as="offset" />
          </mxGeometry>
        </mxCell>
        <mxCell id="PVGxl8hIO0mi03m5juIE-106" value="ze/zir" style="text;strokeColor=none;align=left;verticalAlign=middle;spacingLeft=27;spacingRight=10;overflow=hidden;points=[[0,0.5],[1,0.5]];portConstraint=eastwest;rotatable=0;whiteSpace=wrap;html=1;fillColor=none;fontColor=inherit;fontSize=17;" vertex="1" parent="PVGxl8hIO0mi03m5juIE-104">
          <mxGeometry x="301" y="-2" width="166" height="30" as="geometry" />
        </mxCell>
        <mxCell id="PVGxl8hIO0mi03m5juIE-107" value="" style="resizable=0;fillColor=#EEEEEE;strokeColor=#999999;gradientColor=#cccccc;html=1;" vertex="1" parent="PVGxl8hIO0mi03m5juIE-106">
          <mxGeometry y="0.5" width="15" height="15" relative="1" as="geometry">
            <mxPoint x="8" y="-7.5" as="offset" />
          </mxGeometry>
        </mxCell>
        <mxCell id="PVGxl8hIO0mi03m5juIE-109" value="&lt;div style=&quot;font-size: 15px;&quot;&gt;More Options ➡&lt;br style=&quot;font-size: 15px;&quot;&gt;&lt;/div&gt;" style="shape=rectangle;strokeColor=none;fillColor=none;linkText=;fontSize=15;fontColor=#0000ff;fontStyle=4;html=1;align=left;" vertex="1" parent="1">
          <mxGeometry x="145" y="698" width="150" height="30" as="geometry" />
        </mxCell>
        <mxCell id="PVGxl8hIO0mi03m5juIE-110" value="" style="line;strokeWidth=1" vertex="1" parent="1">
          <mxGeometry x="20" y="731" width="780" height="10" as="geometry" />
        </mxCell>
        <mxCell id="PVGxl8hIO0mi03m5juIE-111" value="Dietary Restrictions &amp; Preferences:" style="text;spacingTop=-5;fontSize=18;fontStyle=0" vertex="1" parent="1">
          <mxGeometry x="35" y="753" width="140" height="20" as="geometry" />
        </mxCell>
        <mxCell id="PVGxl8hIO0mi03m5juIE-112" value="" style="verticalLabelPosition=bottom;shadow=0;dashed=0;align=center;html=1;verticalAlign=top;strokeWidth=1;shape=mxgraph.mockup.misc.help_icon;" vertex="1" parent="1">
          <mxGeometry x="123" y="627" width="18" height="16" as="geometry" />
        </mxCell>
        <mxCell id="PVGxl8hIO0mi03m5juIE-113" value="" style="verticalLabelPosition=bottom;shadow=0;dashed=0;align=center;html=1;verticalAlign=top;strokeWidth=1;shape=mxgraph.mockup.misc.help_icon;" vertex="1" parent="1">
          <mxGeometry x="327" y="757" width="18" height="16" as="geometry" />
        </mxCell>
        <mxCell id="PVGxl8hIO0mi03m5juIE-114" value="Allergies" style="swimlane;strokeColor=#999999;swimlaneFillColor=#FFFFFF;fillColor=#ffffff;fontColor=#008CFF;fontStyle=0;childLayout=stackLayout;horizontal=1;startSize=30;horizontalStack=0;resizeParent=1;resizeParentMax=0;resizeLast=0;collapsible=0;marginBottom=0;whiteSpace=wrap;html=1;fontSize=17;" vertex="1" parent="1">
          <mxGeometry x="90" y="794" width="214" height="240" as="geometry" />
        </mxCell>
        <mxCell id="PVGxl8hIO0mi03m5juIE-115" value="&lt;div&gt;🟨&amp;nbsp; Tree Nuts&lt;/div&gt;" style="text;spacing=0;strokeColor=none;align=left;verticalAlign=middle;spacingLeft=7;spacingRight=10;overflow=hidden;points=[[0,0.5],[1,0.5]];portConstraint=eastwest;rotatable=0;whiteSpace=wrap;html=1;fillColor=none;fontColor=#666666;fontSize=17;" vertex="1" parent="PVGxl8hIO0mi03m5juIE-114">
          <mxGeometry y="30" width="214" height="20" as="geometry" />
        </mxCell>
        <mxCell id="PVGxl8hIO0mi03m5juIE-116" value="&lt;div&gt;🟨&amp;nbsp; Shellfish&lt;/div&gt;" style="text;spacing=0;strokeColor=none;align=left;verticalAlign=middle;spacingLeft=7;spacingRight=10;overflow=hidden;points=[[0,0.5],[1,0.5]];portConstraint=eastwest;rotatable=0;whiteSpace=wrap;html=1;rSize=5;fillColor=none;fontColor=#666666;fontSize=17;" vertex="1" parent="PVGxl8hIO0mi03m5juIE-114">
          <mxGeometry y="50" width="214" height="20" as="geometry" />
        </mxCell>
        <mxCell id="PVGxl8hIO0mi03m5juIE-117" value="🟨&amp;nbsp; Peanuts" style="text;spacing=0;strokeColor=none;align=left;verticalAlign=middle;spacingLeft=7;spacingRight=10;overflow=hidden;points=[[0,0.5],[1,0.5]];portConstraint=eastwest;rotatable=0;whiteSpace=wrap;html=1;rSize=5;fillColor=#DDEEFF;fontColor=#666666;fontSize=17;" vertex="1" parent="PVGxl8hIO0mi03m5juIE-114">
          <mxGeometry y="70" width="214" height="20" as="geometry" />
        </mxCell>
        <mxCell id="PVGxl8hIO0mi03m5juIE-118" value="🟨&amp;nbsp; Eggs" style="text;spacing=0;strokeColor=none;align=left;verticalAlign=middle;spacingLeft=7;spacingRight=10;overflow=hidden;points=[[0,0.5],[1,0.5]];portConstraint=eastwest;rotatable=0;whiteSpace=wrap;html=1;fillColor=none;fontColor=#666666;fontSize=17;" vertex="1" parent="PVGxl8hIO0mi03m5juIE-114">
          <mxGeometry y="90" width="214" height="20" as="geometry" />
        </mxCell>
        <mxCell id="PVGxl8hIO0mi03m5juIE-129" value="🟨&amp;nbsp; Wheat" style="text;spacing=0;strokeColor=none;align=left;verticalAlign=middle;spacingLeft=7;spacingRight=10;overflow=hidden;points=[[0,0.5],[1,0.5]];portConstraint=eastwest;rotatable=0;whiteSpace=wrap;html=1;fillColor=none;fontColor=#666666;fontSize=17;" vertex="1" parent="PVGxl8hIO0mi03m5juIE-114">
          <mxGeometry y="110" width="214" height="20" as="geometry" />
        </mxCell>
        <mxCell id="PVGxl8hIO0mi03m5juIE-130" value="🟨&amp;nbsp; Soy" style="text;spacing=0;strokeColor=none;align=left;verticalAlign=middle;spacingLeft=7;spacingRight=10;overflow=hidden;points=[[0,0.5],[1,0.5]];portConstraint=eastwest;rotatable=0;whiteSpace=wrap;html=1;fillColor=none;fontColor=#666666;fontSize=17;" vertex="1" parent="PVGxl8hIO0mi03m5juIE-114">
          <mxGeometry y="130" width="214" height="20" as="geometry" />
        </mxCell>
        <mxCell id="PVGxl8hIO0mi03m5juIE-119" value="" style="text;spacing=0;strokeColor=none;align=left;verticalAlign=middle;spacingLeft=7;spacingRight=10;overflow=hidden;points=[[0,0.5],[1,0.5]];portConstraint=eastwest;rotatable=0;whiteSpace=wrap;html=1;fillColor=none;fontColor=#666666;fontSize=17;" vertex="1" parent="PVGxl8hIO0mi03m5juIE-114">
          <mxGeometry y="150" width="214" height="90" as="geometry" />
        </mxCell>
        <mxCell id="PVGxl8hIO0mi03m5juIE-123" value="Diets" style="swimlane;strokeColor=#999999;swimlaneFillColor=#FFFFFF;fillColor=#ffffff;fontColor=#008CFF;fontStyle=0;childLayout=stackLayout;horizontal=1;startSize=30;horizontalStack=0;resizeParent=1;resizeParentMax=0;resizeLast=0;collapsible=0;marginBottom=0;whiteSpace=wrap;html=1;fontSize=17;" vertex="1" parent="1">
          <mxGeometry x="326" y="794" width="214" height="220" as="geometry" />
        </mxCell>
        <mxCell id="PVGxl8hIO0mi03m5juIE-124" value="&lt;div&gt;🟨&amp;nbsp; Vegan&lt;br&gt;&lt;/div&gt;" style="text;spacing=0;strokeColor=none;align=left;verticalAlign=middle;spacingLeft=7;spacingRight=10;overflow=hidden;points=[[0,0.5],[1,0.5]];portConstraint=eastwest;rotatable=0;whiteSpace=wrap;html=1;fillColor=none;fontColor=#666666;fontSize=17;" vertex="1" parent="PVGxl8hIO0mi03m5juIE-123">
          <mxGeometry y="30" width="214" height="20" as="geometry" />
        </mxCell>
        <mxCell id="PVGxl8hIO0mi03m5juIE-125" value="&lt;div&gt;🟨&amp;nbsp; Vegetarian&lt;/div&gt;" style="text;spacing=0;strokeColor=none;align=left;verticalAlign=middle;spacingLeft=7;spacingRight=10;overflow=hidden;points=[[0,0.5],[1,0.5]];portConstraint=eastwest;rotatable=0;whiteSpace=wrap;html=1;rSize=5;fillColor=none;fontColor=#666666;fontSize=17;" vertex="1" parent="PVGxl8hIO0mi03m5juIE-123">
          <mxGeometry y="50" width="214" height="20" as="geometry" />
        </mxCell>
        <mxCell id="PVGxl8hIO0mi03m5juIE-126" value="🟨&amp;nbsp; Pescatarian" style="text;spacing=0;strokeColor=none;align=left;verticalAlign=middle;spacingLeft=7;spacingRight=10;overflow=hidden;points=[[0,0.5],[1,0.5]];portConstraint=eastwest;rotatable=0;whiteSpace=wrap;html=1;rSize=5;fillColor=#DDEEFF;fontColor=#666666;fontSize=17;" vertex="1" parent="PVGxl8hIO0mi03m5juIE-123">
          <mxGeometry y="70" width="214" height="20" as="geometry" />
        </mxCell>
        <mxCell id="PVGxl8hIO0mi03m5juIE-127" value="🟨&amp;nbsp; Gluten Free" style="text;spacing=0;strokeColor=none;align=left;verticalAlign=middle;spacingLeft=7;spacingRight=10;overflow=hidden;points=[[0,0.5],[1,0.5]];portConstraint=eastwest;rotatable=0;whiteSpace=wrap;html=1;fillColor=none;fontColor=#666666;fontSize=17;" vertex="1" parent="PVGxl8hIO0mi03m5juIE-123">
          <mxGeometry y="90" width="214" height="20" as="geometry" />
        </mxCell>
        <mxCell id="PVGxl8hIO0mi03m5juIE-131" value="🟨&amp;nbsp; Dairy Free" style="text;spacing=0;strokeColor=none;align=left;verticalAlign=middle;spacingLeft=7;spacingRight=10;overflow=hidden;points=[[0,0.5],[1,0.5]];portConstraint=eastwest;rotatable=0;whiteSpace=wrap;html=1;fillColor=none;fontColor=#666666;fontSize=17;" vertex="1" parent="PVGxl8hIO0mi03m5juIE-123">
          <mxGeometry y="110" width="214" height="20" as="geometry" />
        </mxCell>
        <mxCell id="PVGxl8hIO0mi03m5juIE-128" value="" style="text;spacing=0;strokeColor=none;align=left;verticalAlign=middle;spacingLeft=7;spacingRight=10;overflow=hidden;points=[[0,0.5],[1,0.5]];portConstraint=eastwest;rotatable=0;whiteSpace=wrap;html=1;fillColor=none;fontColor=#666666;fontSize=17;" vertex="1" parent="PVGxl8hIO0mi03m5juIE-123">
          <mxGeometry y="130" width="214" height="90" as="geometry" />
        </mxCell>
      </root>
    </mxGraphModel>
  </diagram>
</mxfile>
